<?xml version="1.0" encoding="UTF-8" standalone="no"?>
<svg
   viewBox="0 0 128 128"
   height="128"
   width="128"
   xml:space="preserve"
   id="svg2"
   version="1.1"
   sodipodi:docname="nexuslua.svg"
   inkscape:version="1.4.2 (ebf0e940d0, 2025-05-08)"
   xmlns:inkscape="http://www.inkscape.org/namespaces/inkscape"
   xmlns:sodipodi="http://sodipodi.sourceforge.net/DTD/sodipodi-0.dtd"
   xmlns="http://www.w3.org/2000/svg"
   xmlns:svg="http://www.w3.org/2000/svg"
   xmlns:rdf="http://www.w3.org/1999/02/22-rdf-syntax-ns#"
   xmlns:cc="http://creativecommons.org/ns#"
   xmlns:dc="http://purl.org/dc/elements/1.1/"><sodipodi:namedview
     id="namedview16"
     pagecolor="#ffffff"
     bordercolor="#666666"
     borderopacity="1.0"
     inkscape:showpageshadow="2"
     inkscape:pageopacity="0.0"
     inkscape:pagecheckerboard="0"
     inkscape:deskcolor="#d1d1d1"
     showgrid="false"
     inkscape:zoom="0.91813396"
     inkscape:cx="-551.11783"
     inkscape:cy="71.884935"
     inkscape:window-width="5120"
     inkscape:window-height="2049"
     inkscape:window-x="0"
     inkscape:window-y="0"
     inkscape:window-maximized="1"
     inkscape:current-layer="svg2" /><metadata
     id="metadata8"><rdf:RDF><cc:Work
         rdf:about=""><dc:format>image/svg+xml</dc:format><dc:type
           rdf:resource="http://purl.org/dc/dcmitype/StillImage" /></cc:Work></rdf:RDF></metadata><defs
     id="defs6"><clipPath
       clipPathUnits="userSpaceOnUse"
       id="clipPath196"><path
         id="path198"
         d="m -64.4863,288.2344 h 480 v -480 h -480 z"
         style="stroke-width:0.999998" /></clipPath><clipPath
       clipPathUnits="userSpaceOnUse"
       id="clipPath253"><path
         id="path255"
         d="m -64.4863,288.2344 h 480 v -480 h -480 z"
         style="stroke-width:0.999998" /></clipPath></defs><path
     id="path12"
     style="fill:#041f3a;fill-opacity:1;fill-rule:nonzero;stroke:none;stroke-width:0.266666"
     d="M 0,128 H 128 V 0 H 0 Z" /><g
     transform="matrix(0.26666666,0,0,-0.26666666,42.37656,62.2832)"
     id="g22"><path
       id="path24"
       style="fill:#429e9d;fill-opacity:1;fill-rule:evenodd;stroke:none"
       d="M 0,0 H 125.699 V 18.439 H 20.121 l 1.499,7.042 c 2.009,9.437 4.94,18.664 8.736,27.534 l 2.44,5.697 c 6.975,-5.936 16.012,-9.519 25.886,-9.519 22.068,0 39.968,17.904 39.968,39.971 0,11.878 -5.186,22.546 -13.418,29.869 l 5.291,3.208 c 14.257,8.641 29.864,14.843 46.17,18.313 l 7.041,1.499 V 0 h 18.44 V 162.174 C 127.935,161.002 95.077,149.527 67.524,128.95 l -0.834,-0.622 c -2.587,0.527 -5.265,0.804 -8.008,0.804 -22.071,0 -39.971,-17.898 -39.971,-39.968 0,-4.693 0.811,-9.195 2.297,-13.378 L 20.506,74.87 C 7.848,51.782 0.898,26.234 0,0 m 58.682,109.105 c 11.011,0 19.942,-8.931 19.942,-19.941 0,-11.01 -8.931,-19.943 -19.942,-19.943 -11.012,0 -19.943,8.93 -19.943,19.943 0,11.012 8.931,19.941 19.943,19.941" /></g><text
     xml:space="preserve"
     style="font-style:normal;font-variant:normal;font-weight:normal;font-stretch:normal;font-size:28.0738px;line-height:1.25;font-family:FreeSans;-inkscape-font-specification:'FreeSans, Normal';font-variant-ligatures:normal;font-variant-caps:normal;font-variant-numeric:normal;font-variant-east-asian:normal;fill:#ffffff;fill-opacity:1;stroke:none;stroke-width:0.701846"
     x="35.059265"
     y="126.47607"
     id="text989"
     transform="scale(1.0300605,0.97081676)"><tspan
       sodipodi:role="line"
       id="tspan852"
       x="35.059265"
       y="126.47607"
       style="stroke-width:0.701846">LUA</tspan></text><text
     xml:space="preserve"
     style="font-size:2.4px;text-align:start;writing-mode:lr-tb;direction:ltr;text-anchor:start;fill:#ececee;stroke-width:0.2"
     x="19.60499"
     y="69.488762"
     id="text1"><tspan
       sodipodi:role="line"
       id="tspan1"
       x="19.60499"
       y="69.488762"
       style="stroke-width:0.2" /></text><text
     xml:space="preserve"
     style="font-size:2.4px;text-align:start;writing-mode:lr-tb;direction:ltr;text-anchor:start;fill:#ececee;stroke-width:0.2"
     x="13.287821"
     y="76.2416"
     id="text2"><tspan
       sodipodi:role="line"
       id="tspan2"
       x="13.287821"
       y="76.2416"
       style="stroke-width:0.2" /></text><text
     xml:space="preserve"
     style="font-size:29.3333px;text-align:start;writing-mode:lr-tb;direction:ltr;text-anchor:start;fill:#ececee;stroke-width:0.2"
     x="17.208811"
     y="80.16259"
     id="text3"><tspan
       sodipodi:role="line"
       id="tspan3"
       x="17.208811"
       y="80.16259"
       style="stroke-width:0.2" /></text><text
     xml:space="preserve"
     style="font-size:29.3334px;text-align:start;writing-mode:lr-tb;direction:ltr;text-anchor:start;fill:#ececee;stroke-width:0.2"
     x="16.646982"
     y="97.082237"
     id="text4"><tspan
       sodipodi:role="line"
       id="tspan4"
       x="16.646982"
       y="97.082237"
       style="stroke-width:0.2">NEXUS</tspan></text></svg>
